#!OML:ASF I:\Actors\actors\Patient Classification 2\Patient 1\Session 1\actor1.ASF
:FULLY-SPECIFIED
:DEGREES
95
root -0.621705 18.5519 6.00228 -1.98132 -2.02129 -1.95793
lowerback 7.16258 0.382001 0.788464
upperback -2.20045 0.583293 -0.0518141
thorax -6.31086 0.255066 -0.570136
lowerneck -10.6869 -1.90741 -1.37931
upperneck 25.8644 -3.04345 2.33102
head 10.0287 -1.2858 0.696539
rclavicle -6.53505e-015 8.34896e-015
rhumerus -49.8242 -11.4248 -81.9137
rradius 42.4796
rwrist 16.2646
rhand -5.07273 -33.7958
rfingers 7.12502
rthumb 20.7235 -62.7093
lclavicle -6.53505e-015 8.34896e-015
lhumerus -43.7426 7.59491 85.5705
lradius 37.909
lwrist -4.98117
lhand -13.1434 -28.9462
lfingers 7.12502
lthumb 12.9549 0.631577
rfemur 10.9446 -2.05957 15.1403
rtibia 1.90833e-014
rfoot -14.1119 -7.8349
rtoes -5.28359
lfemur -1.9015 -2.99286 -12.398
ltibia 24.5361
lfoot -22.5362 9.54097
ltoes -56.4968
96
root -0.621657 18.5518 6.00271 -1.98557 -2.01838 -1.93506
lowerback 7.15651 0.346152 0.772055
upperback -2.18888 0.533604 -0.0533268
thorax -6.29603 0.231331 -0.556183
lowerneck -10.724 -1.88782 -1.44484
upperneck 25.9 -3.01816 2.38934
head 10.0503 -1.27344 0.730874
rclavicle -1.32937e-015 2.98177e-015
rhumerus -49.8119 -11.2568 -82.0134
rradius 42.5155
rwrist 15.9415
rhand -5.45366 -33.547
rfingers 7.12502
rthumb 20.3575 -62.5
lclavicle -1.32937e-015 2.98177e-015
lhumerus -43.7308 7.3115 85.6721
lradius 37.847
lwrist -4.81064
lhand -13.1438 -28.755
lfingers 7.12502
lthumb 12.9546 0.822829
rfemur 10.9552 -2.06073 15.1121
rtibia -4.77083e-015
rfoot -14.0984 -7.82329
rtoes -5.29644
lfemur -1.89839 -2.9743 -12.4225
ltibia 24.5432
lfoot -22.5161 9.54132
ltoes -56.4755
97
root -0.622503 18.5519 6.00283 -1.99146 -2.00926 -1.92441
lowerback 7.14045 0.310692 0.779429
upperback -2.16552 0.485525 -0.0724413
thorax -6.26267 0.207213 -0.57405
lowerneck -10.7566 -1.88532 -1.50269
upperneck 25.9217 -3.0297 2.48964
head 10.0674 -1.27278 0.774349
rclavicle -8.44835e-015 0
rhumerus -49.7552 -11.1493 -82.1559
rradius 42.4983
rwrist 15.4501
rhand -6.06728 -33.5774
rfingers 7.12502
rthumb 19.7677 -62.5922
lclavicle -8.44835e-015 0
lhumerus -43.6897 6.73627 85.8883
lradius 37.8147
lwrist -4.30441
lhand -13.2576 -28.5119
lfingers 7.12502
lthumb 12.8448 1.07283
rfemur 10.9644 -2.06912 15.102
rtibia -2.22639e-014
rfoot -14.101 -7.83604
rtoes -5.29245
lfemur -1.89098 -2.92543 -12.4285
ltibia 24.5437
lfoot -22.4843 9.54806
ltoes -56.6013
98
root -0.62331 18.552 6.00262 -1.99361 -1.98895 -1.92419
lowerback 7.12654 0.269634 0.791319
upperback -2.14121 0.430922 -0.08321
thorax -6.22972 0.179886 -0.584987
lowerneck -10.7716 -1.8712 -1.44876
upperneck 25.8974 -3.00674 2.43634
head 10.0592 -1.26321 0.748903
rclavicle 1.48592e-014 -7.15625e-015
rhumerus -49.695 -11.1463 -82.1782
rradius 42.4703
rwrist 15.5031
rhand -6.06996 -33.5578
rfingers 7.12502
rthumb 19.7651 -62.5729
lclavicle 1.48592e-014 -7.15625e-015
lhumerus -43.601 6.50111 85.9566
lradius 37.7227
lwrist -4.0764
lhand -13.2051 -28.397
lfingers 7.12502
lthumb 12.8955 1.18455
rfemur 10.9648 -2.08953 15.1039
rtibia 1.43125e-014
rfoot -14.1132 -7.85675
rtoes -5.2759
lfemur -1.88892 -2.90521 -12.425
ltibia 24.5311
lfoot -22.443 9.55406
ltoes -56.7309
99
root -0.623247 18.5519 6.00294 -1.99482 -1.96981 -1.90672
lowerback 7.12125 0.232936 0.764914
upperback -2.12589 0.379763 -0.0746515
thorax -6.21152 0.156028 -0.554791
lowerneck -10.7817 -1.86617 -1.40963
upperneck 25.8892 -2.99459 2.38478
head 10.0564 -1.25978 0.725396
rclavicle -1.21259e-014 5.36719e-015
rhumerus -49.6695 -11.2265 -82.0437
rradius 42.4609
rwrist 16.0609
rhand -5.40553 -33.4106
rfingers 7.12502
rthumb 20.4037 -62.3587
lclavicle -1.21259e-014 5.36719e-015
lhumerus -43.4712 6.5985 85.9041
lradius 37.5485
lwrist -4.22277
lhand -12.941 -28.3808
lfingers 7.12502
lthumb 13.1501 1.18455
rfemur 10.9675 -2.10767 15.0837
rtibia 1.59028e-014
rfoot -14.1248 -7.86821
rtoes -5.32351
lfemur -1.88654 -2.92912 -12.4447
ltibia 24.5137
lfoot -22.4332 9.53409
ltoes -56.723
100
root -0.623127 18.5519 6.00384 -1.98609 -1.95179 -1.8874
lowerback 7.10886 0.205893 0.726503
upperback -2.12227 0.34048 -0.0640565
thorax -6.20145 0.138438 -0.51721
lowerneck -10.7804 -1.86536 -1.36247
upperneck 25.8805 -2.98311 2.3069
head 10.0506 -1.25895 0.691306
rclavicle 2.95692e-015 -5.56597e-015
rhumerus -49.6825 -11.3096 -81.9265
rradius 42.4836
rwrist 16.3593
rhand -4.98027 -33.3113
rfingers 7.12502
rthumb 20.8124 -62.2151
lclavicle 2.95692e-015 -5.56597e-015
lhumerus -43.399 6.60678 85.9048
lradius 37.487
lwrist -4.30435
lhand -12.6791 -28.1565
lfingers 7.12502
lthumb 13.4025 1.39236
rfemur 10.9696 -2.12554 15.0623
rtibia 1.11319e-014
rfoot -14.1239 -7.87805
rtoes -5.50705
lfemur -1.88912 -2.98485 -12.4642
ltibia 24.4953
lfoot -22.4835 9.48193
ltoes -56.564
